<?xml version="1.0" encoding="utf-8"?>
<!-- Generator: Adobe Illustrator 24.1.1, SVG Export Plug-In . SVG Version: 6.00 Build 0)  -->
<svg version="1.1" id="Layer_1" xmlns="http://www.w3.org/2000/svg" xmlns:xlink="http://www.w3.org/1999/xlink" x="0px" y="0px"
	 viewBox="0 0 1366 768" style="enable-background:new 0 0 1366 768;" xml:space="preserve">
<style type="text/css">
	.st0{fill:#912e17}
	.st1{fill:#912e17}
	.st2{fill:#912e17}
	.st3{fill:#912e17}
	.st4{fill:#912e17}
	.st5{fill:#912e17}
	.st6{fill:#912e17}
	.st7{fill:#912e17}
	.st8{fill:#912e17}
	.st9{fill:#912e17}
	.st10{fill:#912e17}
	.st11{fill:#912e17}
	.st12{fill:#912e17}
</style>
<g>
	<linearGradient id="SVGID_1_" gradientUnits="userSpaceOnUse" x1="434.2411" y1="327.7453" x2="427.1674" y2="574.3137">
		<stop  offset="0.2762" style="stop-color:#DD5200"/>
		<stop  offset="0.3405" style="stop-color:#D75000"/>
		<stop  offset="0.4255" style="stop-color:#C64A00"/>
		<stop  offset="0.5221" style="stop-color:#AB3F00"/>
		<stop  offset="0.6273" style="stop-color:#853100"/>
		<stop  offset="0.7395" style="stop-color:#541F00"/>
		<stop  offset="0.8557" style="stop-color:#180900"/>
		<stop  offset="0.8999" style="stop-color:#000000"/>
	</linearGradient>
	<path class="st0" d="M395.43,442c0-7.2,1.04-13.49,3.13-18.86c2.09-5.37,4.85-9.83,8.3-13.38c3.44-3.55,7.41-6.21,11.9-7.98
		c4.49-1.77,9.08-2.66,13.77-2.66c10.96,0,19.36,3.42,25.2,10.25c5.84,6.84,8.77,17.24,8.77,31.23c0,0.63,0,1.44,0,2.43
		c0,0.99-0.05,1.91-0.16,2.74h-55.72c0.63,8.45,3.08,14.87,7.36,19.25c4.28,4.38,10.96,6.57,20.04,6.57c5.11,0,9.42-0.44,12.91-1.33
		c3.5-0.89,6.13-1.75,7.91-2.58l2.04,12.21c-1.78,0.94-4.88,1.93-9.31,2.97c-4.44,1.04-9.47,1.57-15.11,1.57
		c-7.1,0-13.23-1.07-18.39-3.21c-5.17-2.14-9.42-5.09-12.76-8.84c-3.34-3.76-5.82-8.22-7.44-13.38
		C396.23,453.82,395.43,448.16,395.43,442z M451.31,434.02c0.1-6.57-1.54-11.97-4.93-16.2c-3.39-4.23-8.06-6.34-14.01-6.34
		c-3.34,0-6.29,0.65-8.84,1.96c-2.56,1.31-4.72,3-6.5,5.09c-1.78,2.09-3.16,4.49-4.15,7.2c-0.99,2.71-1.64,5.48-1.96,8.3H451.31z"/>
	<linearGradient id="SVGID_2_" gradientUnits="userSpaceOnUse" x1="513.6312" y1="330.0229" x2="506.5576" y2="576.5913">
		<stop  offset="0.2762" style="stop-color:#DD5200"/>
		<stop  offset="0.3405" style="stop-color:#D75000"/>
		<stop  offset="0.4255" style="stop-color:#C64A00"/>
		<stop  offset="0.5221" style="stop-color:#AB3F00"/>
		<stop  offset="0.6273" style="stop-color:#853100"/>
		<stop  offset="0.7395" style="stop-color:#541F00"/>
		<stop  offset="0.8557" style="stop-color:#180900"/>
		<stop  offset="0.8999" style="stop-color:#000000"/>
	</linearGradient>
	<path class="st1" d="M501.08,401.15h30.84v12.21h-30.84v37.57c0,4.07,0.31,7.44,0.94,10.1c0.63,2.66,1.57,4.75,2.82,6.26
		c1.25,1.51,2.82,2.58,4.7,3.21c1.88,0.63,4.07,0.94,6.57,0.94c4.38,0,7.9-0.49,10.57-1.49c2.66-0.99,4.51-1.7,5.56-2.11l2.82,12.05
		c-1.46,0.73-4.02,1.64-7.67,2.74c-3.65,1.1-7.83,1.64-12.52,1.64c-5.53,0-10.1-0.7-13.7-2.11c-3.6-1.41-6.5-3.52-8.69-6.34
		c-2.19-2.82-3.73-6.29-4.62-10.41c-0.89-4.12-1.33-8.9-1.33-14.32v-72.63l14.56-2.5V401.15z"/>
	<linearGradient id="SVGID_3_" gradientUnits="userSpaceOnUse" x1="578.7551" y1="331.8912" x2="571.6814" y2="578.4597">
		<stop  offset="0.2762" style="stop-color:#DD5200"/>
		<stop  offset="0.3405" style="stop-color:#D75000"/>
		<stop  offset="0.4255" style="stop-color:#C64A00"/>
		<stop  offset="0.5221" style="stop-color:#AB3F00"/>
		<stop  offset="0.6273" style="stop-color:#853100"/>
		<stop  offset="0.7395" style="stop-color:#541F00"/>
		<stop  offset="0.8557" style="stop-color:#180900"/>
		<stop  offset="0.8999" style="stop-color:#000000"/>
	</linearGradient>
	<path class="st2" d="M604.39,412.1c-2.19,2.4-5.09,5.79-8.69,10.17c-3.6,4.38-7.46,9.23-11.58,14.56
		c-4.12,5.32-8.24,10.91-12.37,16.75c-4.12,5.85-7.75,11.43-10.88,16.75h44.77v12.21H543.5v-9.7c2.5-4.59,5.58-9.65,9.24-15.18
		c3.65-5.53,7.49-11.04,11.5-16.51c4.02-5.48,7.93-10.64,11.74-15.5c3.81-4.85,7.12-8.95,9.94-12.29h-40.23v-12.21h58.7V412.1z"/>
	<linearGradient id="SVGID_4_" gradientUnits="userSpaceOnUse" x1="650.1675" y1="333.9399" x2="643.0939" y2="580.5084">
		<stop  offset="0.2762" style="stop-color:#DD5200"/>
		<stop  offset="0.3405" style="stop-color:#D75000"/>
		<stop  offset="0.4255" style="stop-color:#C64A00"/>
		<stop  offset="0.5221" style="stop-color:#AB3F00"/>
		<stop  offset="0.6273" style="stop-color:#853100"/>
		<stop  offset="0.7395" style="stop-color:#541F00"/>
		<stop  offset="0.8557" style="stop-color:#180900"/>
		<stop  offset="0.8999" style="stop-color:#000000"/>
	</linearGradient>
	<path class="st3" d="M637.73,401.15h30.84v12.21h-30.84v37.57c0,4.07,0.31,7.44,0.94,10.1c0.63,2.66,1.57,4.75,2.82,6.26
		c1.25,1.51,2.82,2.58,4.7,3.21c1.88,0.63,4.07,0.94,6.57,0.94c4.38,0,7.9-0.49,10.57-1.49c2.66-0.99,4.51-1.7,5.56-2.11l2.82,12.05
		c-1.46,0.73-4.02,1.64-7.67,2.74c-3.65,1.1-7.83,1.64-12.52,1.64c-5.53,0-10.1-0.7-13.7-2.11c-3.6-1.41-6.5-3.52-8.69-6.34
		c-2.19-2.82-3.73-6.29-4.62-10.41c-0.89-4.12-1.33-8.9-1.33-14.32v-72.63l14.56-2.5V401.15z"/>
	<linearGradient id="SVGID_5_" gradientUnits="userSpaceOnUse" x1="720.0544" y1="335.9449" x2="712.9807" y2="582.5133">
		<stop  offset="0.2762" style="stop-color:#DD5200"/>
		<stop  offset="0.3405" style="stop-color:#D75000"/>
		<stop  offset="0.4255" style="stop-color:#C64A00"/>
		<stop  offset="0.5221" style="stop-color:#AB3F00"/>
		<stop  offset="0.6273" style="stop-color:#853100"/>
		<stop  offset="0.7395" style="stop-color:#541F00"/>
		<stop  offset="0.8557" style="stop-color:#180900"/>
		<stop  offset="0.8999" style="stop-color:#000000"/>
	</linearGradient>
	<path class="st4" d="M713.18,471.74c15.86,0,23.79-5.42,23.79-16.28c0-3.34-0.7-6.18-2.11-8.53c-1.41-2.35-3.31-4.38-5.71-6.1
		c-2.4-1.72-5.14-3.21-8.22-4.46c-3.08-1.25-6.34-2.5-9.78-3.76c-3.97-1.36-7.72-2.9-11.27-4.62c-3.55-1.72-6.63-3.76-9.24-6.1
		c-2.61-2.35-4.67-5.14-6.18-8.37c-1.51-3.23-2.27-7.15-2.27-11.74c0-9.49,3.23-16.91,9.71-22.23c6.47-5.32,15.39-7.98,26.77-7.98
		c6.57,0,12.55,0.7,17.92,2.11c5.37,1.41,9.31,2.95,11.82,4.62l-4.85,12.37c-2.19-1.36-5.45-2.69-9.78-3.99
		c-4.33-1.3-9.37-1.96-15.11-1.96c-2.92,0-5.64,0.31-8.14,0.94c-2.51,0.63-4.7,1.57-6.57,2.82c-1.88,1.25-3.37,2.84-4.46,4.77
		c-1.1,1.93-1.64,4.2-1.64,6.81c0,2.92,0.57,5.38,1.72,7.36c1.15,1.98,2.76,3.73,4.85,5.24c2.09,1.51,4.51,2.9,7.28,4.15
		c2.76,1.25,5.82,2.5,9.16,3.76c4.7,1.88,9,3.76,12.91,5.64c3.91,1.88,7.3,4.12,10.17,6.73c2.87,2.61,5.09,5.71,6.65,9.31
		c1.57,3.6,2.35,7.96,2.35,13.07c0,9.5-3.47,16.8-10.41,21.91c-6.94,5.11-16.72,7.67-29.35,7.67c-4.28,0-8.22-0.29-11.82-0.86
		c-3.6-0.58-6.81-1.25-9.63-2.04c-2.82-0.78-5.24-1.62-7.28-2.5c-2.03-0.89-3.63-1.64-4.77-2.27l4.54-12.52
		c2.4,1.36,6.05,2.87,10.96,4.54C700.08,470.91,706.08,471.74,713.18,471.74z"/>
	<linearGradient id="SVGID_6_" gradientUnits="userSpaceOnUse" x1="796.2444" y1="338.1306" x2="789.1707" y2="584.6991">
		<stop  offset="0.2762" style="stop-color:#DD5200"/>
		<stop  offset="0.3405" style="stop-color:#D75000"/>
		<stop  offset="0.4255" style="stop-color:#C64A00"/>
		<stop  offset="0.5221" style="stop-color:#AB3F00"/>
		<stop  offset="0.6273" style="stop-color:#853100"/>
		<stop  offset="0.7395" style="stop-color:#541F00"/>
		<stop  offset="0.8557" style="stop-color:#180900"/>
		<stop  offset="0.8999" style="stop-color:#000000"/>
	</linearGradient>
	<path class="st5" d="M783.93,401.15h30.84v12.21h-30.84v37.57c0,4.07,0.31,7.44,0.94,10.1c0.63,2.66,1.57,4.75,2.82,6.26
		c1.25,1.51,2.82,2.58,4.7,3.21c1.88,0.63,4.07,0.94,6.57,0.94c4.38,0,7.91-0.49,10.57-1.49c2.66-0.99,4.51-1.7,5.56-2.11
		l2.82,12.05c-1.46,0.73-4.02,1.64-7.67,2.74c-3.65,1.1-7.83,1.64-12.52,1.64c-5.53,0-10.1-0.7-13.7-2.11
		c-3.6-1.41-6.5-3.52-8.69-6.34c-2.19-2.82-3.73-6.29-4.62-10.41c-0.89-4.12-1.33-8.9-1.33-14.32v-72.63l14.56-2.5V401.15z"/>
	<linearGradient id="SVGID_7_" gradientUnits="userSpaceOnUse" x1="858.2157" y1="339.9085" x2="851.142" y2="586.4769">
		<stop  offset="0.2762" style="stop-color:#DD5200"/>
		<stop  offset="0.3405" style="stop-color:#D75000"/>
		<stop  offset="0.4255" style="stop-color:#C64A00"/>
		<stop  offset="0.5221" style="stop-color:#AB3F00"/>
		<stop  offset="0.6273" style="stop-color:#853100"/>
		<stop  offset="0.7395" style="stop-color:#541F00"/>
		<stop  offset="0.8557" style="stop-color:#180900"/>
		<stop  offset="0.8999" style="stop-color:#000000"/>
	</linearGradient>
	<path class="st6" d="M863.29,399.42c1.25,0,2.68,0.08,4.3,0.23c1.62,0.16,3.21,0.37,4.77,0.63c1.57,0.26,3,0.52,4.3,0.78
		c1.3,0.26,2.27,0.5,2.9,0.7l-2.5,12.68c-1.15-0.42-3.05-0.91-5.71-1.49c-2.66-0.57-6.08-0.86-10.25-0.86
		c-2.72,0-5.4,0.29-8.06,0.86c-2.66,0.57-4.41,0.97-5.24,1.17v68.4h-14.56v-77.95c3.44-1.25,7.72-2.43,12.84-3.52
		C851.18,399.97,856.92,399.42,863.29,399.42z"/>
	<linearGradient id="SVGID_8_" gradientUnits="userSpaceOnUse" x1="930.1725" y1="341.9728" x2="923.0988" y2="588.5413">
		<stop  offset="0.2762" style="stop-color:#DD5200"/>
		<stop  offset="0.3405" style="stop-color:#D75000"/>
		<stop  offset="0.4255" style="stop-color:#C64A00"/>
		<stop  offset="0.5221" style="stop-color:#AB3F00"/>
		<stop  offset="0.6273" style="stop-color:#853100"/>
		<stop  offset="0.7395" style="stop-color:#541F00"/>
		<stop  offset="0.8557" style="stop-color:#180900"/>
		<stop  offset="0.8999" style="stop-color:#000000"/>
	</linearGradient>
	<path class="st7" d="M965.5,441.84c0,6.47-0.94,12.31-2.82,17.53c-1.88,5.22-4.52,9.71-7.91,13.46c-3.39,3.76-7.44,6.65-12.13,8.69
		c-4.7,2.04-9.81,3.05-15.34,3.05c-5.53,0-10.64-1.02-15.34-3.05c-4.7-2.03-8.74-4.93-12.13-8.69c-3.39-3.76-6.03-8.24-7.9-13.46
		c-1.88-5.22-2.82-11.06-2.82-17.53c0-6.36,0.94-12.18,2.82-17.45c1.88-5.27,4.51-9.78,7.9-13.54c3.39-3.76,7.44-6.65,12.13-8.69
		c4.7-2.03,9.81-3.05,15.34-3.05c5.53,0,10.64,1.02,15.34,3.05c4.7,2.04,8.74,4.93,12.13,8.69c3.39,3.76,6.03,8.27,7.91,13.54
		C964.56,429.66,965.5,435.48,965.5,441.84z M950.32,441.84c0-9.18-2.06-16.46-6.18-21.84c-4.12-5.37-9.73-8.06-16.83-8.06
		c-7.1,0-12.71,2.69-16.83,8.06c-4.12,5.38-6.18,12.65-6.18,21.84c0,9.18,2.06,16.46,6.18,21.84c4.12,5.38,9.73,8.06,16.83,8.06
		c7.09,0,12.7-2.68,16.83-8.06C948.26,458.31,950.32,451.03,950.32,441.84z"/>
	<linearGradient id="SVGID_9_" gradientUnits="userSpaceOnUse" x1="1044.1429" y1="345.2425" x2="1037.0692" y2="591.8109">
		<stop  offset="0.2762" style="stop-color:#DD5200"/>
		<stop  offset="0.3405" style="stop-color:#D75000"/>
		<stop  offset="0.4255" style="stop-color:#C64A00"/>
		<stop  offset="0.5221" style="stop-color:#AB3F00"/>
		<stop  offset="0.6273" style="stop-color:#853100"/>
		<stop  offset="0.7395" style="stop-color:#541F00"/>
		<stop  offset="0.8557" style="stop-color:#180900"/>
		<stop  offset="0.8999" style="stop-color:#000000"/>
	</linearGradient>
	<path class="st8" d="M986,403.49c3.34-0.83,7.75-1.72,13.23-2.66c5.48-0.94,11.82-1.41,19.02-1.41c5.22,0,9.6,0.7,13.15,2.11
		c3.55,1.41,6.52,3.47,8.92,6.18c0.73-0.52,1.88-1.25,3.44-2.19c1.56-0.94,3.5-1.85,5.79-2.74c2.29-0.89,4.85-1.67,7.67-2.35
		c2.82-0.68,5.84-1.02,9.08-1.02c6.26,0,11.37,0.91,15.34,2.74c3.96,1.83,7.07,4.41,9.31,7.75c2.24,3.34,3.76,7.31,4.54,11.9
		c0.78,4.59,1.17,9.6,1.17,15.03v45.71h-14.56v-42.58c0-4.8-0.24-8.92-0.7-12.37c-0.47-3.44-1.36-6.31-2.66-8.61
		c-1.31-2.29-3.08-3.99-5.32-5.09c-2.25-1.1-5.14-1.64-8.69-1.64c-4.91,0-8.95,0.65-12.13,1.96c-3.18,1.31-5.35,2.48-6.5,3.52
		c0.83,2.72,1.46,5.69,1.88,8.92c0.42,3.24,0.63,6.63,0.63,10.17v45.71h-14.56v-42.58c0-4.8-0.26-8.92-0.78-12.37
		c-0.52-3.44-1.44-6.31-2.74-8.61c-1.31-2.29-3.08-3.99-5.32-5.09c-2.24-1.1-5.09-1.64-8.53-1.64c-1.46,0-3.03,0.05-4.7,0.16
		c-1.67,0.11-3.26,0.24-4.77,0.39c-1.51,0.16-2.9,0.34-4.15,0.55c-1.25,0.21-2.09,0.37-2.51,0.47v68.72H986V403.49z"/>
	<linearGradient id="SVGID_10_" gradientUnits="userSpaceOnUse" x1="1131.1317" y1="347.7381" x2="1124.058" y2="594.3065">
		<stop  offset="0.2762" style="stop-color:#DD5200"/>
		<stop  offset="0.3405" style="stop-color:#D75000"/>
		<stop  offset="0.4255" style="stop-color:#C64A00"/>
		<stop  offset="0.5221" style="stop-color:#AB3F00"/>
		<stop  offset="0.6273" style="stop-color:#853100"/>
		<stop  offset="0.7395" style="stop-color:#541F00"/>
		<stop  offset="0.8557" style="stop-color:#180900"/>
		<stop  offset="0.8999" style="stop-color:#000000"/>
	</linearGradient>
	<path class="st9" d="M1137.99,474.09c0,2.82-0.94,5.27-2.82,7.36c-1.88,2.09-4.44,3.13-7.67,3.13c-3.24,0-5.79-1.04-7.67-3.13
		c-1.88-2.09-2.82-4.54-2.82-7.36c0-2.82,0.94-5.27,2.82-7.36c1.88-2.09,4.43-3.13,7.67-3.13c3.23,0,5.79,1.04,7.67,3.13
		C1137.05,468.82,1137.99,471.27,1137.99,474.09z"/>
	<linearGradient id="SVGID_11_" gradientUnits="userSpaceOnUse" x1="1193.7694" y1="349.5351" x2="1186.6957" y2="596.1035">
		<stop  offset="0.2762" style="stop-color:#DD5200"/>
		<stop  offset="0.3405" style="stop-color:#D75000"/>
		<stop  offset="0.4255" style="stop-color:#C64A00"/>
		<stop  offset="0.5221" style="stop-color:#AB3F00"/>
		<stop  offset="0.6273" style="stop-color:#853100"/>
		<stop  offset="0.7395" style="stop-color:#541F00"/>
		<stop  offset="0.8557" style="stop-color:#180900"/>
		<stop  offset="0.8999" style="stop-color:#000000"/>
	</linearGradient>
	<path class="st10" d="M1211.87,363.58l14.56-2.5v119.12c-3.34,0.94-7.62,1.88-12.84,2.82c-5.22,0.94-11.22,1.41-18,1.41
		c-6.26,0-11.9-0.99-16.9-2.97c-5.01-1.98-9.29-4.8-12.84-8.45c-3.55-3.65-6.29-8.11-8.22-13.38c-1.93-5.27-2.9-11.19-2.9-17.77
		c0-6.26,0.81-12,2.43-17.22c1.62-5.22,3.99-9.7,7.12-13.46c3.13-3.76,6.96-6.68,11.5-8.77c4.54-2.09,9.73-3.13,15.57-3.13
		c4.7,0,8.84,0.63,12.44,1.88c3.6,1.25,6.29,2.45,8.06,3.6V363.58z M1211.87,418.36c-1.78-1.46-4.33-2.87-7.67-4.23
		c-3.34-1.36-6.99-2.04-10.96-2.04c-4.17,0-7.75,0.76-10.72,2.27c-2.97,1.51-5.4,3.6-7.28,6.26c-1.88,2.66-3.24,5.82-4.07,9.47
		c-0.84,3.65-1.25,7.57-1.25,11.74c0,9.5,2.35,16.83,7.04,21.99c4.7,5.16,10.96,7.75,18.78,7.75c3.96,0,7.28-0.18,9.94-0.55
		c2.66-0.37,4.72-0.76,6.18-1.17V418.36z"/>
	<linearGradient id="SVGID_12_" gradientUnits="userSpaceOnUse" x1="1285.0503" y1="352.1538" x2="1277.9767" y2="598.7222">
		<stop  offset="0.2762" style="stop-color:#DD5200"/>
		<stop  offset="0.3405" style="stop-color:#D75000"/>
		<stop  offset="0.4255" style="stop-color:#C64A00"/>
		<stop  offset="0.5221" style="stop-color:#AB3F00"/>
		<stop  offset="0.6273" style="stop-color:#853100"/>
		<stop  offset="0.7395" style="stop-color:#541F00"/>
		<stop  offset="0.8557" style="stop-color:#180900"/>
		<stop  offset="0.8999" style="stop-color:#000000"/>
	</linearGradient>
	<path class="st11" d="M1246.94,442c0-7.2,1.04-13.49,3.13-18.86c2.09-5.37,4.85-9.83,8.3-13.38c3.44-3.55,7.41-6.21,11.9-7.98
		c4.49-1.77,9.08-2.66,13.77-2.66c10.96,0,19.36,3.42,25.2,10.25c5.84,6.84,8.77,17.24,8.77,31.23c0,0.63,0,1.44,0,2.43
		c0,0.99-0.05,1.91-0.16,2.74h-55.72c0.63,8.45,3.08,14.87,7.36,19.25c4.28,4.38,10.96,6.57,20.04,6.57c5.11,0,9.42-0.44,12.91-1.33
		c3.5-0.89,6.13-1.75,7.91-2.58l2.03,12.21c-1.77,0.94-4.88,1.93-9.31,2.97c-4.44,1.04-9.47,1.57-15.1,1.57
		c-7.1,0-13.23-1.07-18.39-3.21s-9.42-5.09-12.76-8.84c-3.34-3.76-5.82-8.22-7.44-13.38C1247.74,453.82,1246.94,448.16,1246.94,442z
		 M1302.82,434.02c0.1-6.57-1.54-11.97-4.93-16.2c-3.39-4.23-8.06-6.34-14.01-6.34c-3.34,0-6.29,0.65-8.84,1.96
		c-2.56,1.31-4.72,3-6.5,5.09c-1.78,2.09-3.16,4.49-4.15,7.2c-0.99,2.71-1.64,5.48-1.96,8.3H1302.82z"/>
	<linearGradient id="SVGID_13_" gradientUnits="userSpaceOnUse" x1="376.4824" y1="195.5541" x2="108.877" y2="645.4101">
		<stop  offset="0.2762" style="stop-color:#DD5200"/>
		<stop  offset="0.3405" style="stop-color:#D75000"/>
		<stop  offset="0.4255" style="stop-color:#C64A00"/>
		<stop  offset="0.5221" style="stop-color:#AB3F00"/>
		<stop  offset="0.6273" style="stop-color:#853100"/>
		<stop  offset="0.7395" style="stop-color:#541F00"/>
		<stop  offset="0.8557" style="stop-color:#180900"/>
		<stop  offset="0.8999" style="stop-color:#000000"/>
	</linearGradient>
	<path class="st12" d="M356.71,360.33c7.83-9.81,17.47-21.47,27.54-33.47c9.32-11.11,19.01-22.5,27.98-32.97
		c11.28-13.17,21.4-24.87,28.21-32.71c5.52-6.35,8.86-10.18,8.86-10.18c-0.6,0.43-4.42,3.37-10.63,8.17
		c-7.94,6.14-19.79,15.32-33.91,26.28c-10.31,8-21.83,16.93-33.89,26.3c-11,8.54-22.45,17.43-33.88,26.31
		c-11.49,8.93-22.95,17.83-33.88,26.32c-12.19,9.47-23.7,18.42-33.87,26.32c-14.98,11.64-27,20.99-33.87,26.32
		c-0.18,0.14-0.37,0.29-0.55,0.43c-0.18,0.14-0.37,0.29-0.55,0.43c-0.2,0.15-0.36,0.28-0.55,0.43c-0.19,0.14-0.37,0.29-0.55,0.43
		c-0.18,0.14-0.37,0.29-0.55,0.43c-0.2,0.15-0.37,0.28-0.55,0.43c-0.18,0.14-0.38,0.3-0.55,0.43c-0.2,0.16-0.37,0.29-0.55,0.43
		c-0.18,0.14-0.39,0.3-0.55,0.43c-0.22,0.17-0.38,0.3-0.55,0.43c-0.23,0.18-0.41,0.32-0.55,0.43c-0.18,0.14-0.31,0.24-0.31,0.24
		c0.01,0,0.16-0.04,0.44-0.09c0.2-0.04,0.46-0.1,0.78-0.16c0.23-0.05,0.49-0.1,0.78-0.16c0.24-0.05,0.5-0.1,0.78-0.16
		c0.25-0.05,0.51-0.1,0.78-0.16c0.25-0.05,0.51-0.1,0.78-0.16c0.25-0.05,0.51-0.1,0.79-0.16c0.26-0.05,0.51-0.1,0.79-0.16
		c0.26-0.05,0.52-0.1,0.79-0.16c0.25-0.05,0.52-0.1,0.79-0.15c0.26-0.05,0.52-0.1,0.79-0.15c0.26-0.05,0.52-0.1,0.79-0.15
		c11.38-2.21,31.62-5.91,49.95-8.17c13.81-1.71,26.53-2.6,33.54-1.43c0.53,0.09-4.45,11.15-11.53,26.28
		c-5.86,12.51-13.16,27.81-19.98,42.01c-0.11,0.23-0.22,0.45-0.32,0.68c-0.11,0.23-0.22,0.45-0.32,0.68
		c-0.11,0.23-0.22,0.45-0.32,0.68s-0.22,0.45-0.33,0.68c-0.11,0.22-0.22,0.45-0.32,0.68c-0.11,0.23-0.22,0.45-0.33,0.68
		c-0.11,0.23-0.22,0.45-0.33,0.68s-0.22,0.45-0.33,0.68c-0.11,0.23-0.22,0.45-0.33,0.68c-0.11,0.23-0.22,0.45-0.33,0.68
		c-0.11,0.23-0.22,0.45-0.33,0.68c-0.11,0.22-0.22,0.45-0.33,0.68c-0.11,0.23-0.22,0.45-0.33,0.68c-0.11,0.23-0.22,0.45-0.33,0.68
		c-0.11,0.23-0.22,0.45-0.33,0.68c-0.11,0.22-0.22,0.45-0.33,0.68c-0.11,0.23-0.22,0.45-0.33,0.68c-0.11,0.23-0.22,0.45-0.33,0.68
		c-0.11,0.23-0.22,0.45-0.33,0.68c-0.11,0.23-0.22,0.45-0.33,0.68c-0.11,0.23-0.22,0.45-0.33,0.68s-0.22,0.45-0.33,0.68
		c-0.11,0.22-0.22,0.45-0.33,0.68c-0.11,0.23-0.22,0.45-0.33,0.68c-0.11,0.23-0.22,0.45-0.33,0.68c-0.11,0.22-0.22,0.45-0.33,0.68
		c-0.11,0.23-0.22,0.45-0.33,0.68c-0.11,0.23-0.22,0.45-0.33,0.68c-0.11,0.23-0.22,0.45-0.33,0.68c-0.11,0.23-0.22,0.45-0.33,0.68
		c-0.11,0.23-0.22,0.45-0.33,0.68c-0.11,0.23-0.22,0.45-0.33,0.68c-0.11,0.22-0.22,0.45-0.33,0.68c-0.11,0.23-0.22,0.45-0.33,0.68
		c-0.11,0.23-0.22,0.45-0.33,0.67c-0.11,0.22-0.22,0.45-0.33,0.68c-0.11,0.23-0.22,0.45-0.33,0.67c-0.11,0.23-0.22,0.45-0.33,0.67
		c-0.11,0.22-0.22,0.45-0.33,0.67c-0.11,0.23-0.22,0.45-0.33,0.67s-0.22,0.45-0.33,0.67c-0.11,0.22-0.22,0.45-0.33,0.67
		c-0.11,0.23-0.22,0.45-0.33,0.67c-0.11,0.23-0.22,0.45-0.33,0.67c-0.11,0.23-0.22,0.45-0.33,0.67c-0.11,0.23-0.22,0.45-0.33,0.67
		c-0.11,0.22-0.22,0.46-0.33,0.67c-0.11,0.23-0.22,0.45-0.33,0.67c-0.11,0.23-0.22,0.45-0.33,0.67c-0.11,0.23-0.22,0.45-0.33,0.67
		c-0.11,0.23-0.22,0.45-0.33,0.67c-0.11,0.23-0.22,0.46-0.33,0.67c-0.11,0.23-0.22,0.45-0.33,0.67c-0.11,0.22-0.22,0.46-0.33,0.67
		c-0.11,0.23-0.22,0.45-0.33,0.67c-0.11,0.23-0.22,0.46-0.33,0.67c-0.11,0.24-0.22,0.45-0.33,0.67c-0.11,0.23-0.22,0.46-0.33,0.67
		c-0.11,0.23-0.22,0.46-0.33,0.67c-0.11,0.24-0.22,0.46-0.33,0.67c-0.11,0.23-0.22,0.46-0.33,0.67c-0.11,0.24-0.23,0.47-0.33,0.67
		c-0.12,0.25-0.23,0.47-0.33,0.67c-0.13,0.27-0.24,0.49-0.33,0.67c-0.18,0.38-0.29,0.59-0.29,0.59l0,0
		c-0.11,0.21-0.22,0.42-0.34,0.63c-0.12,0.22-0.23,0.43-0.35,0.65c-0.12,0.21-0.24,0.43-0.35,0.65c-0.12,0.21-0.24,0.43-0.35,0.65
		s-0.23,0.43-0.35,0.65c-0.12,0.21-0.24,0.43-0.36,0.64c-0.12,0.21-0.24,0.43-0.36,0.64c-0.12,0.21-0.24,0.43-0.36,0.64
		c-0.12,0.21-0.24,0.43-0.36,0.64c-0.12,0.21-0.24,0.42-0.36,0.64c-0.12,0.21-0.24,0.42-0.36,0.64c-0.12,0.21-0.24,0.42-0.36,0.63
		c-0.12,0.21-0.24,0.42-0.37,0.63c-0.12,0.21-0.24,0.42-0.37,0.63c-0.12,0.21-0.24,0.42-0.37,0.63c-0.12,0.21-0.25,0.42-0.37,0.63
		c-0.12,0.21-0.25,0.42-0.37,0.63c-0.12,0.21-0.25,0.42-0.37,0.63c-0.12,0.21-0.25,0.41-0.37,0.62c-0.12,0.21-0.25,0.41-0.38,0.62
		c-0.13,0.21-0.25,0.41-0.38,0.62c-0.13,0.21-0.25,0.41-0.38,0.62c-0.13,0.2-0.25,0.41-0.38,0.61c-0.13,0.2-0.25,0.41-0.38,0.61
		c-0.13,0.2-0.25,0.41-0.38,0.61c-0.13,0.2-0.26,0.41-0.39,0.61c-0.13,0.2-0.26,0.4-0.39,0.61c-0.13,0.2-0.26,0.4-0.39,0.61
		c-0.13,0.2-0.26,0.4-0.39,0.6c-0.13,0.2-0.26,0.4-0.39,0.6c-0.13,0.2-0.26,0.4-0.39,0.6c-0.13,0.2-0.26,0.4-0.39,0.6
		c-0.13,0.2-0.27,0.4-0.4,0.59c-0.13,0.2-0.27,0.39-0.4,0.59c-0.13,0.2-0.27,0.4-0.4,0.59c-0.13,0.2-0.27,0.39-0.4,0.59
		c-0.13,0.2-0.27,0.39-0.41,0.58c-0.14,0.19-0.27,0.39-0.41,0.58c-0.14,0.19-0.27,0.39-0.41,0.58c-0.14,0.19-0.27,0.39-0.41,0.58
		c-0.14,0.19-0.28,0.38-0.41,0.58c-0.14,0.19-0.28,0.38-0.41,0.58c-0.14,0.19-0.28,0.38-0.42,0.58c-0.14,0.19-0.28,0.38-0.42,0.57
		c-0.14,0.19-0.28,0.38-0.42,0.57c-0.14,0.19-0.28,0.38-0.42,0.57c-0.14,0.19-0.28,0.38-0.43,0.56c-0.14,0.19-0.29,0.37-0.43,0.56
		c-0.14,0.19-0.29,0.37-0.43,0.56c-0.14,0.19-0.29,0.37-0.43,0.56c-0.14,0.18-0.29,0.37-0.44,0.55c-0.15,0.18-0.29,0.37-0.44,0.55
		c-0.15,0.18-0.29,0.37-0.44,0.55c-0.15,0.18-0.29,0.37-0.44,0.55c-0.15,0.18-0.3,0.36-0.45,0.54c-0.15,0.18-0.3,0.36-0.45,0.54
		c-0.15,0.18-0.3,0.36-0.45,0.54c-0.15,0.18-0.3,0.36-0.45,0.53c-0.15,0.18-0.3,0.35-0.46,0.53c-0.15,0.18-0.3,0.35-0.46,0.53
		c-0.15,0.18-0.3,0.35-0.46,0.53c-0.15,0.17-0.31,0.35-0.46,0.52c-0.15,0.17-0.31,0.35-0.47,0.52c-0.16,0.17-0.31,0.35-0.47,0.52
		c-0.16,0.17-0.31,0.35-0.47,0.52c-0.16,0.17-0.32,0.34-0.48,0.51c-0.16,0.17-0.32,0.34-0.48,0.51c-0.16,0.17-0.32,0.34-0.48,0.51
		c-0.16,0.17-0.32,0.33-0.48,0.5c-0.16,0.17-0.32,0.33-0.49,0.49c-0.16,0.17-0.32,0.33-0.49,0.49c-0.16,0.16-0.32,0.33-0.49,0.49
		c-0.16,0.16-0.33,0.32-0.49,0.49c-0.16,0.16-0.33,0.32-0.5,0.48c-0.17,0.16-0.33,0.32-0.5,0.48c-0.17,0.16-0.33,0.32-0.5,0.48
		c-0.17,0.16-0.34,0.31-0.51,0.47c-0.17,0.16-0.34,0.31-0.51,0.47c-0.17,0.16-0.34,0.31-0.51,0.47c-0.17,0.15-0.34,0.31-0.51,0.47
		c-0.17,0.15-0.35,0.3-0.52,0.46c-0.17,0.15-0.35,0.3-0.52,0.46c-0.17,0.15-0.35,0.31-0.52,0.46c-0.18,0.15-0.35,0.3-0.53,0.45
		c-0.18,0.15-0.36,0.29-0.53,0.44c-0.18,0.15-0.36,0.3-0.53,0.44c-0.18,0.15-0.35,0.3-0.53,0.44c-0.18,0.14-0.36,0.29-0.54,0.43
		c-0.18,0.14-0.36,0.28-0.55,0.43c-0.18,0.14-0.36,0.29-0.55,0.43c-0.18,0.14-0.36,0.29-0.55,0.42c-0.18,0.14-0.37,0.27-0.56,0.41
		c-0.19,0.14-0.37,0.27-0.56,0.41c-0.19,0.14-0.37,0.28-0.56,0.41c-0.19,0.14-0.38,0.27-0.57,0.4c-0.19,0.13-0.38,0.26-0.57,0.39
		c-0.19,0.13-0.38,0.26-0.58,0.39c-0.19,0.13-0.38,0.27-0.57,0.39c-0.19,0.13-0.39,0.25-0.59,0.38c-0.2,0.13-0.39,0.25-0.59,0.38
		c-0.2,0.13-0.39,0.25-0.59,0.38c-0.2,0.12-0.39,0.25-0.59,0.38c-0.2,0.12-0.4,0.24-0.61,0.36s-0.4,0.24-0.61,0.36
		c-0.2,0.12-0.4,0.24-0.61,0.36c-0.2,0.12-0.41,0.24-0.61,0.35c-0.21,0.12-0.42,0.23-0.62,0.34c-0.21,0.11-0.41,0.23-0.62,0.34
		c-0.21,0.11-0.41,0.23-0.62,0.34c-0.21,0.11-0.42,0.22-0.63,0.33c-0.21,0.11-0.43,0.21-0.64,0.32c-0.21,0.11-0.42,0.22-0.64,0.32
		c-0.21,0.11-0.43,0.22-0.64,0.32c-0.22,0.1-0.44,0.2-0.66,0.3s-0.44,0.2-0.66,0.3c-0.22,0.1-0.44,0.2-0.66,0.3
		c-0.22,0.1-0.44,0.19-0.67,0.29c-0.22,0.1-0.45,0.19-0.68,0.28c-0.23,0.09-0.45,0.19-0.68,0.28c-0.23,0.09-0.45,0.19-0.68,0.28
		c-0.23,0.09-0.46,0.17-0.7,0.26c-0.23,0.09-0.46,0.17-0.7,0.26c-0.23,0.09-0.46,0.17-0.7,0.26c-0.23,0.08-0.47,0.17-0.7,0.25
		c-0.24,0.08-0.48,0.16-0.72,0.23c-0.24,0.08-0.48,0.16-0.72,0.23c-0.24,0.08-0.48,0.16-0.72,0.23c-0.24,0.07-0.49,0.14-0.74,0.21
		c-0.25,0.07-0.49,0.14-0.74,0.21s-0.49,0.14-0.74,0.21c-0.25,0.07-0.5,0.13-0.75,0.2c-0.25,0.06-0.51,0.12-0.76,0.18
		c-0.25,0.06-0.51,0.12-0.76,0.18s-0.51,0.13-0.76,0.18c-0.26,0.06-0.52,0.1-0.79,0.16c-0.26,0.05-0.52,0.1-0.79,0.16
		c-0.26,0.05-0.52,0.11-0.79,0.16c-0.27,0.05-0.53,0.09-0.8,0.14c-0.27,0.05-0.54,0.08-0.81,0.13s-0.54,0.09-0.81,0.13
		c-0.27,0.04-0.54,0.08-0.82,0.12c-0.28,0.04-0.56,0.06-0.84,0.1c-0.28,0.03-0.56,0.07-0.84,0.1c-0.28,0.03-0.56,0.07-0.84,0.1
		c-0.29,0.03-0.58,0.04-0.86,0.07c-0.29,0.02-0.58,0.04-0.87,0.06c-0.29,0.02-0.58,0.05-0.87,0.06c-0.29,0.02-0.59,0.03-0.89,0.04
		c-0.3,0.01-0.6,0.02-0.9,0.03c-0.3,0.01-0.6,0.02-0.9,0.03c-0.3,0.01-0.61,0.01-0.91,0.02c-0.31,0-0.62-0.01-0.93-0.01
		c-0.31,0-0.62,0-0.93-0.01c-0.31-0.01-0.62,0-0.94-0.01c-0.32-0.01-0.64-0.03-0.97-0.05c-0.32-0.01-0.64-0.03-0.97-0.05
		c-0.32-0.02-0.64-0.03-0.97-0.05c-0.33-0.02-0.67-0.06-1-0.09c-0.33-0.03-0.67-0.06-1-0.09c-0.33-0.03-0.66-0.05-1-0.09
		c-0.34-0.04-0.69-0.09-1.04-0.13c-0.35-0.04-0.69-0.09-1.04-0.13c-0.35-0.05-0.69-0.08-1.04-0.13c-0.36-0.05-0.72-0.12-1.08-0.18
		c-0.36-0.06-0.72-0.12-1.08-0.18c-0.36-0.06-0.72-0.11-1.08-0.18c-0.37-0.07-0.75-0.15-1.13-0.23c-0.37-0.07-0.75-0.15-1.13-0.23
		c-0.38-0.08-0.75-0.15-1.13-0.23c-0.39-0.09-0.78-0.19-1.17-0.28c-0.39-0.09-0.78-0.18-1.17-0.28c-0.4-0.1-0.79-0.19-1.19-0.3
		c-0.41-0.11-0.82-0.23-1.23-0.34c-0.41-0.11-0.81-0.22-1.23-0.34c-0.42-0.12-0.84-0.25-1.25-0.37c-0.42-0.13-0.85-0.27-1.28-0.4
		c-0.43-0.14-0.85-0.26-1.28-0.4c-0.44-0.15-0.89-0.31-1.33-0.46c-0.45-0.15-0.89-0.31-1.34-0.47c-0.35-0.13-0.7-0.24-1.05-0.37
		c-0.1-0.04-0.2-0.08-0.31-0.12c-0.48-0.18-0.94-0.37-1.41-0.55c-0.47-0.18-0.95-0.36-1.41-0.55c-0.49-0.2-0.98-0.4-1.46-0.6
		c-0.51-0.21-1.01-0.43-1.5-0.65c-0.51-0.22-1.02-0.44-1.52-0.67c-23.59-10.87-36.11-27.96-41.92-47.32
		c-0.15-0.51-0.29-1.02-0.44-1.54c-0.14-0.5-0.29-1.01-0.42-1.52c-0.13-0.48-0.24-0.97-0.36-1.45c-0.12-0.48-0.24-0.95-0.35-1.43
		c-0.1-0.46-0.2-0.92-0.29-1.38c-0.1-0.46-0.2-0.91-0.29-1.37c-0.09-0.44-0.16-0.88-0.24-1.31c-0.08-0.44-0.16-0.87-0.24-1.31
		c-0.07-0.42-0.14-0.85-0.2-1.27c-0.07-0.42-0.13-0.84-0.19-1.26c-0.06-0.41-0.12-0.83-0.18-1.24c-0.05-0.4-0.1-0.81-0.15-1.21
		c-0.05-0.4-0.1-0.81-0.15-1.21c-0.04-0.39-0.08-0.78-0.12-1.18c-0.04-0.39-0.08-0.78-0.11-1.17c-0.03-0.39-0.07-0.77-0.1-1.16
		c-0.03-0.38-0.05-0.76-0.08-1.13c-0.03-0.38-0.06-0.76-0.08-1.13c-0.02-0.37-0.04-0.74-0.06-1.12c-0.02-0.37-0.03-0.73-0.05-1.1
		c-0.02-0.37-0.04-0.73-0.05-1.1c-0.01-0.36-0.02-0.72-0.03-1.08c-0.01-0.36-0.02-0.71-0.02-1.07c-0.01-0.36-0.02-0.71-0.02-1.07
		c0-0.35,0-0.7,0-1.05c0-0.35,0-0.7,0-1.04c0-0.35,0-0.7,0-1.04c0-0.34,0.01-0.68,0.02-1.02c0.01-0.34,0.01-0.68,0.02-1.02
		c0.01-0.34,0.01-0.68,0.02-1.02c0.01-0.33,0.03-0.67,0.04-1c0.01-0.33,0.03-0.67,0.04-1c0.01-0.33,0.02-0.67,0.04-1
		c0.02-0.33,0.04-0.66,0.05-0.98c0.02-0.33,0.04-0.65,0.06-0.98c0.02-0.33,0.04-0.65,0.06-0.98c0.02-0.32,0.04-0.64,0.07-0.97
		c0.02-0.32,0.05-0.64,0.07-0.96c0.02-0.32,0.05-0.64,0.07-0.96c0.03-0.32,0.05-0.64,0.08-0.95c0.03-0.31,0.06-0.63,0.09-0.94
		c0.03-0.31,0.06-0.63,0.09-0.94c0.03-0.31,0.06-0.63,0.09-0.94c0.03-0.31,0.07-0.62,0.1-0.93c0.03-0.31,0.07-0.62,0.1-0.93
		c0.03-0.31,0.07-0.62,0.1-0.93c0.04-0.31,0.08-0.61,0.11-0.92c0.04-0.31,0.08-0.61,0.11-0.91c0.04-0.3,0.08-0.61,0.11-0.91
		c0.04-0.3,0.08-0.6,0.12-0.91c0.04-0.3,0.08-0.6,0.13-0.9c0.04-0.3,0.08-0.6,0.13-0.9c0.04-0.3,0.08-0.6,0.13-0.9
		c0.04-0.3,0.09-0.59,0.14-0.89c0.05-0.3,0.09-0.59,0.14-0.89c0.05-0.3,0.09-0.59,0.14-0.89c0.05-0.29,0.1-0.59,0.15-0.88
		c0.05-0.29,0.1-0.59,0.15-0.88c0.05-0.29,0.1-0.59,0.15-0.88c0.05-0.29,0.1-0.58,0.15-0.87c0.05-0.29,0.1-0.58,0.16-0.87
		c0.05-0.29,0.1-0.58,0.16-0.87s0.1-0.58,0.16-0.87c0.05-0.29,0.11-0.57,0.16-0.86c0.05-0.29,0.11-0.57,0.16-0.86
		c0.06-0.29,0.11-0.57,0.16-0.86c0.06-0.28,0.11-0.57,0.17-0.85c0.06-0.28,0.11-0.57,0.17-0.85c0.06-0.28,0.11-0.57,0.17-0.85
		c0.06-0.28,0.12-0.57,0.17-0.85c0.06-0.28,0.12-0.56,0.18-0.84c0.06-0.28,0.12-0.56,0.18-0.84c0.06-0.28,0.12-0.56,0.18-0.84
		c0.06-0.28,0.12-0.56,0.19-0.83c0.06-0.28,0.12-0.56,0.19-0.83c0.06-0.28,0.12-0.56,0.19-0.83c0.06-0.28,0.13-0.55,0.19-0.83
		c0.06-0.28,0.13-0.55,0.19-0.83c0.06-0.28,0.13-0.55,0.19-0.83c0.06-0.28,0.13-0.55,0.19-0.83c0.07-0.28,0.13-0.55,0.2-0.82
		c0.07-0.27,0.13-0.55,0.2-0.82s0.13-0.55,0.2-0.82c0.07-0.27,0.14-0.54,0.2-0.82c0.07-0.27,0.14-0.54,0.2-0.81
		c0.07-0.27,0.13-0.55,0.2-0.82c0.07-0.27,0.14-0.54,0.21-0.81c0.07-0.27,0.14-0.54,0.21-0.81c0.07-0.27,0.14-0.54,0.21-0.81
		c0.06-0.22,0.11-0.44,0.17-0.65l10.99,3.01l2.09,0.57c1.66,0.45,3.35,0.19,4.72-0.57c1.22-0.68,2.19-1.74,2.62-3.1l11.1-34.44
		l0.06-0.19c0.05-0.15,0.02-0.31-0.06-0.43c-0.07-0.11-0.19-0.2-0.34-0.25l-7.2-1.97l6.01-18.4c0.34-1.05-0.23-2.18-1.28-2.52
		l-2.85-0.93c-1.05-0.34-2.18,0.23-2.52,1.28l-6.12,18.73l-12.48-3.41l6.11-18.68c0.34-1.05-0.23-2.18-1.28-2.52l-2.85-0.93
		c-1.05-0.34-2.18,0.23-2.52,1.28l-6.21,19.01l-6.26-1.71l-0.21-0.06c-0.16-0.05-0.33-0.02-0.47,0.06
		c-0.12,0.07-0.22,0.17-0.27,0.31l-10.54,32.7l-0.62,1.93c-0.49,1.53-0.21,3.09,0.62,4.35c0.73,1.12,1.89,2.01,3.36,2.42l11.37,3.11
		c-0.06,0.17-0.12,0.35-0.18,0.52c-0.09,0.25-0.18,0.5-0.27,0.74c-0.09,0.25-0.18,0.5-0.27,0.74c-0.09,0.25-0.18,0.49-0.26,0.74
		c-0.09,0.25-0.17,0.5-0.26,0.75c-0.09,0.25-0.17,0.51-0.25,0.76c-0.08,0.25-0.17,0.51-0.25,0.76c-0.08,0.25-0.17,0.51-0.25,0.76
		c-0.08,0.26-0.16,0.51-0.25,0.77c-0.08,0.26-0.16,0.52-0.24,0.78c-0.08,0.26-0.16,0.52-0.24,0.78c-0.08,0.26-0.16,0.52-0.24,0.78
		c-0.08,0.26-0.16,0.52-0.23,0.78c-0.08,0.26-0.15,0.53-0.22,0.79c-0.08,0.26-0.15,0.53-0.22,0.79c-0.07,0.26-0.15,0.53-0.22,0.79
		c-0.07,0.26-0.15,0.53-0.22,0.79c-0.07,0.27-0.14,0.54-0.21,0.81c-0.07,0.27-0.14,0.54-0.21,0.81c-0.07,0.27-0.14,0.54-0.21,0.81
		c-0.07,0.27-0.14,0.54-0.21,0.81c-0.07,0.27-0.13,0.55-0.2,0.82c-0.07,0.27-0.13,0.55-0.2,0.82s-0.13,0.55-0.2,0.82
		c-0.06,0.28-0.13,0.55-0.2,0.82c-0.06,0.28-0.12,0.56-0.18,0.84c-0.06,0.28-0.12,0.56-0.18,0.84c-0.06,0.28-0.12,0.56-0.18,0.84
		c-0.06,0.28-0.12,0.56-0.18,0.84c-0.06,0.28-0.11,0.57-0.17,0.85c-0.06,0.28-0.11,0.57-0.17,0.85c-0.06,0.28-0.11,0.57-0.17,0.85
		c-0.05,0.29-0.11,0.57-0.17,0.85c-0.05,0.29-0.1,0.58-0.15,0.87c-0.05,0.29-0.1,0.58-0.15,0.87c-0.05,0.29-0.1,0.58-0.15,0.87
		c-0.05,0.29-0.1,0.58-0.15,0.87c-0.05,0.29-0.09,0.59-0.14,0.89c-0.05,0.3-0.09,0.59-0.14,0.89c-0.05,0.3-0.09,0.59-0.14,0.89
		c-0.04,0.3-0.09,0.59-0.14,0.89c-0.04,0.3-0.08,0.6-0.12,0.91c-0.04,0.3-0.08,0.6-0.12,0.91c-0.04,0.3-0.08,0.6-0.12,0.91
		c-0.04,0.3-0.08,0.6-0.12,0.91c-0.04,0.31-0.07,0.62-0.11,0.93c-0.04,0.31-0.07,0.62-0.1,0.93c-0.03,0.31-0.07,0.62-0.1,0.93
		c-0.03,0.31-0.07,0.62-0.1,0.93c-0.03,0.31-0.06,0.63-0.09,0.94c-0.03,0.31-0.06,0.63-0.09,0.94c-0.03,0.32-0.06,0.63-0.09,0.94
		c-0.03,0.32-0.06,0.63-0.08,0.95c-0.03,0.32-0.05,0.64-0.07,0.96c-0.02,0.32-0.05,0.64-0.07,0.96c-0.02,0.32-0.05,0.64-0.07,0.96
		c-0.02,0.33-0.04,0.65-0.06,0.98c-0.02,0.33-0.03,0.66-0.05,0.99c-0.02,0.33-0.04,0.66-0.05,0.99c-0.02,0.33-0.04,0.66-0.05,0.99
		c-0.01,0.33-0.02,0.67-0.03,1.01c-0.01,0.34-0.02,0.67-0.03,1.01s-0.02,0.67-0.03,1.01c-0.01,0.34-0.02,0.68-0.03,1.01
		c-0.01,0.34-0.01,0.69-0.01,1.03c0,0.34-0.01,0.69-0.01,1.03c0,0.34-0.01,0.69-0.01,1.03c0,0.35,0,0.7,0.01,1.05
		c0,0.35,0.01,0.7,0.01,1.06c0,0.35,0,0.7,0.01,1.06c0.01,0.35,0.01,0.71,0.02,1.06c0.01,0.36,0.02,0.72,0.03,1.08
		c0.01,0.36,0.02,0.72,0.03,1.08c0.01,0.36,0.02,0.72,0.03,1.08c0.02,0.37,0.04,0.74,0.06,1.11c0.02,0.37,0.04,0.74,0.06,1.11
		c0.02,0.37,0.04,0.74,0.06,1.11c0.02,0.38,0.05,0.75,0.07,1.13c0.03,0.38,0.06,0.76,0.09,1.14c0.03,0.38,0.05,0.76,0.09,1.14
		c0.03,0.38,0.06,0.77,0.09,1.15c0.03,0.39,0.08,0.78,0.11,1.17c0.04,0.39,0.07,0.78,0.11,1.17c0.04,0.39,0.08,0.79,0.12,1.18
		c0.04,0.4,0.1,0.8,0.14,1.21c0.05,0.4,0.09,0.81,0.14,1.21c4.93,39.45,24.45,77.23,65.63,95.29c8.88,3.9,17.37,6.34,25.48,7.55
		c0.36,0.05,0.71,0.11,1.07,0.16c0.35,0.05,0.69,0.08,1.04,0.13c0.35,0.04,0.69,0.09,1.04,0.13c0.34,0.04,0.68,0.07,1.01,0.1
		c0.34,0.03,0.67,0.07,1.01,0.1c0.33,0.03,0.66,0.05,0.99,0.08c0.33,0.02,0.66,0.05,0.98,0.07c0.33,0.02,0.65,0.04,0.97,0.06
		c0.32,0.02,0.64,0.03,0.96,0.04c0.32,0.01,0.64,0.03,0.96,0.04c0.31,0.01,0.62,0.01,0.93,0.01c0.31,0,0.62,0.01,0.93,0.01
		c0.31,0,0.61,0,0.92-0.01c0.3,0,0.61-0.01,0.91-0.02c0.3-0.01,0.6-0.01,0.91-0.02c0.3-0.01,0.59-0.03,0.89-0.04
		c0.3-0.01,0.59-0.02,0.89-0.04c0.29-0.02,0.58-0.04,0.87-0.06c0.29-0.02,0.58-0.04,0.87-0.06c0.29-0.02,0.57-0.05,0.86-0.07
		c0.28-0.03,0.56-0.06,0.85-0.09c0.28-0.03,0.57-0.06,0.85-0.09c0.28-0.03,0.55-0.07,0.83-0.11c0.28-0.04,0.55-0.07,0.83-0.11
		c0.27-0.04,0.55-0.07,0.82-0.12c0.27-0.04,0.54-0.09,0.81-0.13c0.27-0.04,0.54-0.08,0.81-0.13c0.27-0.05,0.53-0.1,0.8-0.14
		c0.26-0.05,0.53-0.1,0.79-0.15c0.26-0.05,0.53-0.1,0.79-0.15c0.26-0.05,0.52-0.11,0.77-0.17c0.26-0.06,0.52-0.11,0.77-0.17
		c0.26-0.06,0.51-0.12,0.77-0.18c0.25-0.06,0.51-0.12,0.76-0.19c0.25-0.06,0.51-0.12,0.76-0.19c0.25-0.07,0.5-0.14,0.74-0.2
		c0.25-0.07,0.5-0.14,0.74-0.21c0.25-0.07,0.49-0.14,0.74-0.21c0.24-0.07,0.48-0.15,0.73-0.22c0.24-0.07,0.49-0.15,0.73-0.22
		c0.24-0.08,0.48-0.15,0.72-0.23c0.24-0.08,0.48-0.16,0.71-0.24c0.24-0.08,0.48-0.16,0.71-0.24c0.23-0.08,0.47-0.17,0.7-0.25
		c0.23-0.08,0.47-0.17,0.7-0.26c0.23-0.09,0.47-0.17,0.7-0.26c0.23-0.09,0.46-0.18,0.69-0.27c0.23-0.09,0.46-0.18,0.69-0.27
		c0.23-0.09,0.46-0.18,0.68-0.27c0.23-0.09,0.45-0.19,0.67-0.29c0.22-0.09,0.45-0.19,0.67-0.29c0.22-0.1,0.45-0.19,0.67-0.29
		c0.22-0.1,0.44-0.2,0.66-0.3c0.22-0.1,0.44-0.2,0.66-0.3c0.22-0.1,0.44-0.2,0.65-0.31c0.22-0.1,0.43-0.21,0.65-0.31
		c0.22-0.1,0.43-0.21,0.65-0.31c0.21-0.11,0.43-0.21,0.64-0.32c0.21-0.11,0.42-0.22,0.64-0.33c0.21-0.11,0.42-0.22,0.64-0.33
		c0.21-0.11,0.42-0.22,0.63-0.34c0.21-0.11,0.42-0.23,0.62-0.34s0.42-0.22,0.62-0.34c0.21-0.11,0.41-0.23,0.61-0.35
		c0.2-0.12,0.41-0.23,0.61-0.35c0.2-0.12,0.41-0.23,0.61-0.35c0.2-0.12,0.4-0.24,0.6-0.36c0.2-0.12,0.4-0.24,0.6-0.36
		c0.2-0.12,0.4-0.24,0.6-0.37c0.2-0.12,0.39-0.25,0.59-0.38c0.2-0.12,0.39-0.25,0.59-0.38c0.2-0.13,0.39-0.25,0.59-0.38
		c0.19-0.13,0.39-0.26,0.58-0.39c0.19-0.13,0.39-0.26,0.58-0.39c0.19-0.13,0.39-0.26,0.58-0.39c0.19-0.13,0.38-0.27,0.57-0.4
		c0.19-0.13,0.38-0.27,0.57-0.4s0.38-0.27,0.57-0.4c0.19-0.13,0.37-0.27,0.56-0.41c0.19-0.14,0.37-0.27,0.56-0.41
		c0.19-0.14,0.37-0.27,0.56-0.41c0.19-0.14,0.37-0.28,0.55-0.42c0.18-0.14,0.37-0.28,0.55-0.42c0.18-0.14,0.37-0.28,0.55-0.42
		c0.18-0.14,0.36-0.29,0.54-0.43c0.18-0.14,0.36-0.29,0.54-0.43c0.18-0.14,0.36-0.29,0.54-0.43c0.18-0.15,0.36-0.29,0.53-0.44
		c0.18-0.15,0.36-0.29,0.53-0.44c0.18-0.15,0.36-0.29,0.53-0.44c0.18-0.15,0.35-0.3,0.53-0.45c0.18-0.15,0.35-0.3,0.53-0.45
		c0.17-0.15,0.35-0.3,0.53-0.45c0.17-0.15,0.34-0.31,0.52-0.46c0.17-0.15,0.34-0.31,0.52-0.46c0.17-0.15,0.35-0.31,0.52-0.46
		c0.17-0.15,0.34-0.31,0.51-0.47c0.17-0.16,0.34-0.31,0.51-0.47c0.17-0.16,0.34-0.31,0.51-0.47c0.17-0.16,0.33-0.32,0.5-0.48
		c0.17-0.16,0.33-0.32,0.5-0.48c0.17-0.16,0.33-0.32,0.5-0.48c0.17-0.16,0.33-0.32,0.49-0.49c0.16-0.16,0.33-0.32,0.49-0.49
		c0.16-0.16,0.33-0.32,0.49-0.49c0.16-0.16,0.32-0.33,0.49-0.49s0.32-0.33,0.49-0.5c0.16-0.17,0.32-0.33,0.49-0.5
		c0.16-0.17,0.32-0.33,0.48-0.5c0.16-0.17,0.32-0.34,0.48-0.5c0.16-0.17,0.32-0.34,0.48-0.5c0.16-0.17,0.32-0.34,0.47-0.51
		c0.16-0.17,0.31-0.34,0.47-0.51c0.16-0.17,0.31-0.34,0.47-0.51c0.16-0.17,0.31-0.34,0.47-0.52c0.16-0.17,0.31-0.35,0.46-0.52
		c0.15-0.17,0.31-0.35,0.46-0.52c0.15-0.17,0.31-0.35,0.46-0.52c0.15-0.18,0.3-0.35,0.46-0.53s0.3-0.35,0.46-0.53
		s0.3-0.35,0.45-0.53c0.15-0.18,0.3-0.36,0.45-0.54c0.15-0.18,0.3-0.36,0.45-0.54c0.15-0.18,0.3-0.36,0.45-0.54
		c0.15-0.18,0.29-0.36,0.44-0.54c0.15-0.18,0.3-0.36,0.44-0.54c0.15-0.18,0.3-0.36,0.44-0.54c0.15-0.18,0.29-0.37,0.44-0.55
		c0.15-0.18,0.29-0.37,0.44-0.55c0.15-0.18,0.29-0.37,0.44-0.55s0.29-0.37,0.43-0.56c0.14-0.19,0.29-0.37,0.43-0.56
		c0.14-0.19,0.29-0.37,0.43-0.56c0.14-0.19,0.28-0.38,0.42-0.56c0.14-0.19,0.28-0.38,0.42-0.57c0.14-0.19,0.28-0.38,0.42-0.57
		c0.14-0.19,0.28-0.38,0.42-0.57c0.14-0.19,0.28-0.38,0.42-0.57s0.28-0.38,0.42-0.57c0.14-0.19,0.28-0.39,0.41-0.58
		c0.14-0.19,0.27-0.39,0.41-0.58c0.14-0.19,0.28-0.39,0.41-0.58c0.14-0.19,0.27-0.39,0.41-0.58c0.14-0.19,0.27-0.39,0.41-0.59
		c0.14-0.2,0.27-0.39,0.41-0.59c0.13-0.2,0.27-0.39,0.4-0.59c0.13-0.2,0.27-0.4,0.4-0.59c0.13-0.2,0.27-0.39,0.4-0.59
		c0.13-0.2,0.26-0.4,0.4-0.6c0.13-0.2,0.26-0.4,0.39-0.6c0.13-0.2,0.26-0.4,0.39-0.6c0.08-0.13,0.17-0.25,0.25-0.38
		c0.05-0.07,0.1-0.15,0.14-0.22c0.13-0.2,0.26-0.4,0.39-0.6c0.13-0.2,0.26-0.4,0.39-0.6c0.13-0.2,0.26-0.4,0.39-0.6
		c0.13-0.2,0.26-0.4,0.39-0.6c0.13-0.2,0.26-0.4,0.39-0.6c0.13-0.2,0.26-0.4,0.39-0.6c0.13-0.2,0.26-0.4,0.39-0.6
		c0.13-0.2,0.26-0.4,0.39-0.6c0.13-0.2,0.26-0.4,0.39-0.6c0.13-0.2,0.26-0.4,0.39-0.6c0.13-0.2,0.26-0.4,0.39-0.6
		c0.13-0.2,0.26-0.4,0.39-0.6c0.13-0.2,0.26-0.4,0.39-0.6c0.13-0.2,0.26-0.4,0.39-0.6c0.13-0.2,0.26-0.4,0.39-0.6
		c0.13-0.2,0.26-0.4,0.39-0.6c0.13-0.2,0.26-0.4,0.39-0.6c0.13-0.2,0.26-0.4,0.39-0.6c0.13-0.2,0.26-0.4,0.39-0.6
		c0.13-0.2,0.26-0.4,0.39-0.6c0.13-0.2,0.26-0.4,0.39-0.6c0.13-0.2,0.26-0.4,0.39-0.6c0.13-0.2,0.26-0.4,0.39-0.6
		c0.13-0.2,0.26-0.4,0.39-0.6c0.13-0.2,0.26-0.4,0.39-0.6c0.13-0.2,0.26-0.4,0.39-0.6c0.13-0.2,0.26-0.4,0.39-0.6
		c0.13-0.2,0.26-0.4,0.39-0.6s0.26-0.4,0.39-0.6c0.13-0.2,0.26-0.4,0.39-0.6c0.13-0.2,0.26-0.4,0.39-0.6c0.13-0.2,0.26-0.4,0.39-0.6
		c0.13-0.2,0.26-0.4,0.39-0.6c0.13-0.2,0.26-0.4,0.39-0.6c0.13-0.2,0.26-0.4,0.39-0.6c0.13-0.2,0.26-0.4,0.39-0.6
		c0.13-0.2,0.26-0.4,0.39-0.6c0.13-0.2,0.26-0.4,0.39-0.6c0.13-0.2,0.26-0.4,0.39-0.6c0.13-0.2,0.26-0.4,0.39-0.6
		c0.13-0.2,0.26-0.4,0.39-0.6c0.13-0.2,0.26-0.4,0.39-0.6c0.13-0.2,0.26-0.4,0.39-0.6c0.13-0.2,0.26-0.4,0.39-0.6
		c0.13-0.2,0.26-0.4,0.39-0.6c0.13-0.2,0.26-0.4,0.39-0.6c0.13-0.2,0.26-0.4,0.39-0.6c0.13-0.2,0.26-0.4,0.39-0.6
		c0.13-0.2,0.26-0.4,0.39-0.6c0.13-0.2,0.26-0.4,0.39-0.6c0.13-0.2,0.26-0.4,0.39-0.6c0.13-0.2,0.26-0.4,0.39-0.6
		c0.13-0.2,0.26-0.4,0.39-0.6c0.13-0.2,0.26-0.4,0.39-0.6c0.13-0.2,0.26-0.4,0.39-0.6c0.13-0.2,0.26-0.4,0.39-0.6s0.26-0.4,0.39-0.6
		c0.13-0.2,0.26-0.4,0.39-0.6c0.13-0.2,0.26-0.4,0.39-0.6c0.13-0.2,0.26-0.4,0.39-0.6c0.13-0.2,0.26-0.4,0.39-0.6
		c0.13-0.2,0.26-0.4,0.39-0.6c0.13-0.2,0.26-0.4,0.39-0.6c0.13-0.2,0.26-0.4,0.39-0.6c0.13-0.2,0.26-0.4,0.39-0.6
		c0.13-0.2,0.26-0.4,0.39-0.6c0.13-0.2,0.26-0.4,0.39-0.6c0.13-0.2,0.26-0.4,0.39-0.6c0.13-0.2,0.26-0.4,0.39-0.6
		c0.13-0.2,0.26-0.4,0.39-0.6c0.13-0.2,0.26-0.4,0.39-0.6c0.13-0.2,0.26-0.4,0.39-0.6c0.13-0.2,0.26-0.4,0.39-0.6
		c0.13-0.2,0.26-0.4,0.39-0.6c0.13-0.2,0.26-0.4,0.39-0.6c0.13-0.2,0.26-0.4,0.39-0.6c0.13-0.2,0.26-0.4,0.39-0.6
		c0.13-0.2,0.26-0.4,0.39-0.6c0.13-0.2,0.26-0.4,0.39-0.6c0.13-0.2,0.26-0.4,0.39-0.6c0.13-0.2,0.26-0.4,0.39-0.6
		c0.13-0.2,0.26-0.4,0.39-0.6c0.13-0.2,0.26-0.4,0.39-0.6c0.13-0.2,0.26-0.4,0.39-0.6c0.13-0.2,0.26-0.4,0.39-0.6
		c0.13-0.2,0.26-0.4,0.39-0.6c0.13-0.2,0.26-0.4,0.39-0.6c0.13-0.2,0.26-0.4,0.39-0.6c0.13-0.2,0.26-0.4,0.39-0.6
		c0.13-0.2,0.26-0.4,0.39-0.6c0.13-0.2,0.26-0.4,0.39-0.6c0.13-0.2,0.26-0.4,0.39-0.6c0.13-0.2,0.26-0.4,0.39-0.6s0.26-0.4,0.39-0.6
		c0.13-0.2,0.26-0.4,0.39-0.6c0.13-0.2,0.26-0.4,0.39-0.6c0.13-0.2,0.26-0.4,0.39-0.6c0.13-0.2,0.26-0.4,0.39-0.6
		c7.86-12.14,16.08-24.96,23.97-37.54c8.4-13.39,16.43-26.52,23.3-38.3c3.34-5.73,8.99-13.71,11.71-18.7
		c0.03-0.06,0.07-0.11,0.11-0.17c5.3-7.49,8.07-11.45,13.25-17.08c13.93-15.14,26.46-23.81,32.71-27.64
		c2.66-1.63,4.19-2.39,4.19-2.39c-0.1,0.03-1.98,0.53-5.12,1.34c-9.17,2.36-29.17,7.36-47.57,10.86
		c-11.59,2.21-22.55,3.83-29.76,3.83c-6.06,0-6.98-1.16-7.06-1.29c-0.15-0.23-0.01-0.74,0.37-1.37
		C342.26,378.88,348.49,370.63,356.71,360.33z"/>
</g>
</svg>
